<svg width="28" height="28" viewBox="0 0 28 28" fill="none" xmlns="http://www.w3.org/2000/svg">
<circle cx="13.9278" cy="13.5855" r="13.5855" fill="#F9F9F7" fill-opacity="0.12"/>
<path d="M13.9296 8.20062C15.6848 8.20062 15.8926 8.20719 16.586 8.23881C17.0029 8.24391 17.4158 8.32046 17.8068 8.46513C18.0904 8.57449 18.3479 8.742 18.5628 8.9569C18.7777 9.1718 18.9452 9.42932 19.0545 9.71287C19.1992 10.1039 19.2758 10.5168 19.2809 10.9337C19.3122 11.6271 19.319 11.8349 19.319 13.5901C19.319 15.3452 19.3125 15.5531 19.2809 16.2464C19.2758 16.6633 19.1992 17.0763 19.0545 17.4673C18.9452 17.7508 18.7777 18.0083 18.5628 18.2232C18.3479 18.4381 18.0904 18.6056 17.8068 18.715C17.4158 18.8597 17.0029 18.9362 16.586 18.9413C15.8929 18.9726 15.6851 18.9795 13.9296 18.9795C12.1741 18.9795 11.9663 18.9729 11.2732 18.9413C10.8563 18.9362 10.4434 18.8597 10.0524 18.715C9.76885 18.6056 9.51133 18.4381 9.29643 18.2232C9.08154 18.0083 8.91402 17.7508 8.80466 17.4673C8.65999 17.0763 8.58344 16.6633 8.57834 16.2464C8.54704 15.5531 8.54015 15.3452 8.54015 13.5901C8.54015 11.8349 8.54673 11.6271 8.57834 10.9337C8.58344 10.5168 8.65999 10.1039 8.80466 9.71287C8.91402 9.42932 9.08154 9.1718 9.29643 8.9569C9.51133 8.742 9.76885 8.57449 10.0524 8.46513C10.4434 8.32046 10.8563 8.24391 11.2732 8.23881C11.9666 8.20751 12.1744 8.20062 13.9296 8.20062ZM13.9296 7.01611C12.1453 7.01611 11.9206 7.02363 11.2194 7.05556C10.6738 7.06641 10.134 7.16971 9.62292 7.36107C9.18452 7.52625 8.78744 7.78509 8.45939 8.11955C8.12463 8.44772 7.86557 8.84503 7.70029 9.28371C7.50893 9.79476 7.40562 10.3346 7.39477 10.8802C7.36347 11.5807 7.35596 11.8055 7.35596 13.5898C7.35596 15.374 7.36347 15.5988 7.3954 16.3C7.40625 16.8456 7.50956 17.3854 7.70092 17.8964C7.86601 18.3351 8.12486 18.7324 8.45939 19.0606C8.78762 19.3951 9.18493 19.654 9.62355 19.8191C10.1346 20.0104 10.6744 20.1137 11.22 20.1246C11.9212 20.1559 12.145 20.164 13.9302 20.164C15.7154 20.164 15.9393 20.1565 16.6404 20.1246C17.186 20.1137 17.7258 20.0104 18.2369 19.8191C18.6734 19.6498 19.0699 19.3914 19.4008 19.0602C19.7318 18.7291 19.99 18.3325 20.1589 17.8958C20.3503 17.3848 20.4536 16.8449 20.4644 16.2993C20.4957 15.5988 20.5032 15.374 20.5032 13.5898C20.5032 11.8055 20.4957 11.5807 20.4638 10.8795C20.4529 10.3339 20.3496 9.79413 20.1583 9.28308C19.9932 8.84446 19.7343 8.44715 19.3998 8.11892C19.0716 7.78439 18.6743 7.52554 18.2356 7.36045C17.7246 7.16909 17.1848 7.06578 16.6392 7.05493C15.9386 7.02363 15.7139 7.01611 13.9296 7.01611Z" fill="white"/>
<path d="M13.928 10.2178C13.2603 10.2178 12.6077 10.4158 12.0525 10.7867C11.4974 11.1576 11.0647 11.6848 10.8092 12.3017C10.5537 12.9185 10.4869 13.5972 10.6171 14.2521C10.7474 14.9069 11.0689 15.5084 11.541 15.9805C12.0131 16.4526 12.6146 16.7741 13.2694 16.9044C13.9242 17.0346 14.603 16.9678 15.2198 16.7123C15.8366 16.4568 16.3638 16.0241 16.7348 15.4689C17.1057 14.9138 17.3037 14.2611 17.3037 13.5935C17.3037 12.6982 16.948 11.8396 16.315 11.2065C15.6819 10.5734 14.8233 10.2178 13.928 10.2178ZM13.928 15.7847C13.4946 15.7847 13.0709 15.6562 12.7106 15.4154C12.3503 15.1746 12.0694 14.8324 11.9036 14.432C11.7377 14.0316 11.6943 13.5911 11.7789 13.166C11.8634 12.741 12.0721 12.3505 12.3785 12.0441C12.685 11.7376 13.0754 11.5289 13.5005 11.4444C13.9255 11.3598 14.3661 11.4032 14.7665 11.5691C15.1669 11.7349 15.5091 12.0158 15.7499 12.3761C15.9907 12.7365 16.1192 13.1601 16.1192 13.5935C16.1192 14.1746 15.8883 14.732 15.4774 15.1429C15.0665 15.5538 14.5091 15.7847 13.928 15.7847Z" fill="white"/>
<path d="M17.4485 10.8711C17.8842 10.8711 18.2373 10.518 18.2373 10.0823C18.2373 9.64663 17.8842 9.29346 17.4485 9.29346C17.0128 9.29346 16.6597 9.64663 16.6597 10.0823C16.6597 10.518 17.0128 10.8711 17.4485 10.8711Z" fill="white"/>
</svg>
